# xmcd CD database file
#
# Track frame offsets:
#	150
#	9042
#	21249
#	36649
#	48693
#	62652
#	74851
#	91639
#	104446
#	118664
#	130116
#	143929
#	154022
#	166824
#	180168
#	203968
#	215460
#	228100
#	242748
#	255151
#
# Disc length: 3616 seconds
#
# Revision: 2
# Processed by: cddbd v1.4PL0 Copyright (c) Steve Scherf et al.
# Submitted via: CDex 1.51
#
DISCID=0d0e1e14
DTITLE=The Ink Spots - Java Jive - The Best Of
DYEAR=2000
DGENRE=Jazz
TTITLE0=You Always Hurt The One You Love
TTITLE1=I'm Confession
TTITLE2=Stars Fell On Alabama
TTITLE3=Swing High Swing Low
TTITLE4=If I Didn't Care
TTITLE5=Do I Worry
TTITLE6=My Prayer
TTITLE7=Bless You For Being An Angel
TTITLE8=Blueberry Hill
TTITLE9=Into Each Life Some Rain Must Fall
TTITLE10=Java Jive
TTITLE11=When The Saints Go Marching In
TTITLE12=Whispering Grass
TTITLE13=When The Swallows Come Back To Capistrano
TTITLE14=Make Believe
TTITLE15=The Gypsy
TTITLE16=I'm Getting Sentimental Over You
TTITLE17=When The Sun Goes Down
TTITLE18=Just In Case You Change Your Mind
TTITLE19=There Goes My Heart
EXTD=YEAR: 2000
EXTT0=
EXTT1=
EXTT2=
EXTT3=
EXTT4=
EXTT5=
EXTT6=
EXTT7=
EXTT8=
EXTT9=
EXTT10=
EXTT11=
EXTT12=
EXTT13=
EXTT14=
EXTT15=
EXTT16=
EXTT17=
EXTT18=
EXTT19=
PLAYORDER=
